PathFileType	4	(X/Y/Z)	E:\Qualisys_Data\Carbon_Farble_Plate\Data\Amateur_Runner\S14\T1\S14T1V11_c3d.trc
DataRate	CameraRate	NumFrames	NumMarkers	Units	OrigDataRate	OrigDataStartFrame	OrigNumFrames
200.000000	200.000000	4	39	mm	200.000000	0	349
Frame#	Time	LSHO			RSHO			LICST			RICST			LASIS			LHEEL			RASIS			LTROC			RTROC			SACR			LTH1			LSK4			LTH2			LTH3			RHM5			LSK2			LTH4			RTH1			LTOE			RTH2			RTH3			RTH4			LLEP			RLEP			LSK1			LSK3			RSK1			LHM5			RSK2			LFT1			RSK3			RSK4			LLME			RLME			RTOE			RHEEL			RFT1			RFT2			LFT2			
		X1	Y1	Z1	X2	Y2	Z2	X3	Y3	Z3	X4	Y4	Z4	X5	Y5	Z5	X6	Y6	Z6	X7	Y7	Z7	X8	Y8	Z8	X9	Y9	Z9	X10	Y10	Z10	X11	Y11	Z11	X12	Y12	Z12	X13	Y13	Z13	X14	Y14	Z14	X15	Y15	Z15	X16	Y16	Z16	X17	Y17	Z17	X18	Y18	Z18	X19	Y19	Z19	X20	Y20	Z20	X21	Y21	Z21	X22	Y22	Z22	X23	Y23	Z23	X24	Y24	Z24	X25	Y25	Z25	X26	Y26	Z26	X27	Y27	Z27	X28	Y28	Z28	X29	Y29	Z29	X30	Y30	Z30	X31	Y31	Z31	X32	Y32	Z32	X33	Y33	Z33	X34	Y34	Z34	X35	Y35	Z35	X36	Y36	Z36	X37	Y37	Z37	X38	Y38	Z38	X39	Y39	Z39	

1	0	-2556.294677734375	1466.660766601562	-534.0908203125	-2614.05712890625	1477.552856445312	-236.8820343017578	-2644.43798828125	1024.716430664062	-509.2214965820312	-2631.719970703125	1034.027587890625	-232.2213592529297	-2608.910400390625	970.469970703125	-482.0813598632812	-3139.38427734375	269.772216796875	-404.0532836914062	-2609.307373046875	988.6680908203125	-250.6339874267578	-2773.100341796875	924.3237915039062	-519.5432739257812	-2747.19580078125	945.4307861328125	-198.1594543457031	-2774.366943359375	1044.521728515625	-377.0837707519531	-2762.668212890625	691.6253051757812	-527.4389038085938	-3015.03759765625	409.1754455566406	-479.7597351074219	-2835.008056640625	716.969970703125	-504.2711791992188	-2784.881591796875	596.6195068359375	-503.0043334960938	-2550.928466796875	126.8891067504883	-208.7345123291016	-2954.9404296875	487.3385009765625	-496.3556518554688	-2859.394775390625	622.5632934570312	-485.7521057128906	-2523.0078125	756.6925048828125	-204.9894104003906	-3006.609130859375	64.90023803710938	-423.90234375	-2593.406005859375	723.6809692382812	-192.0063323974609	-2478.76611328125	668.8508911132812	-231.84423828125	-2550.71533203125	631.5508422851562	-209.9529876708984	-2840.23974609375	540.6764526367188	-494.8837585449219	-2509.994384765625	575.4158935546875	-218.9249725341797	-2889.39453125	437.8436889648438	-496.1643371582031	-2953.8291015625	358.1071166992188	-484.9048461914062	-2517.625	453.4809875488281	-214.4465789794922	-3063.0712890625	94.16258239746094	-484.7601928710938	-2598.125	481.6526489257812	-209.9611511230469	-3150.13037109375	247.8581695556641	-374.3062438964844	-2558.4140625	358.6788330078125	-226.1024780273438	-2631.075927734375	391.1531372070312	-219.8103485107422	-3091.31103515625	240.45703125	-460.9931640625	-2663.4697265625	214.7406005859375	-238.4043579101562	-2478.25537109375	119.5479507446289	-270.6096496582031	-2723.7001953125	199.2762603759766	-291.6557922363281	-2716.939453125	166.1716003417969	-320.8869018554688	-2728.897216796875	176.4589996337891	-264.9032287597656	-3162.538818359375	251.4868011474609	-427.0773010253906
2	0.005	-2539.32861328125	1469.625	-532.7886962890625	-2598.242431640625	1479.669311523438	-236.0785827636719	-2626.67724609375	1026.667846679688	-508.4561157226562	-2616.591064453125	1037.111328125	-231.6402740478516	-2592.023681640625	972.4832153320312	-481.7830200195312	-3126.1640625	277.1184692382812	-405.1990051269531	-2592.229736328125	991.1532592773438	-250.0538940429688	-2756.782470703125	927.2410888671876	-519.7702026367188	-2730.365966796875	948.4280395507812	-197.8439483642578	-2757.2822265625	1047.05859375	-377.3736267089844	-2749.27001953125	695.18115234375	-527.75341796875	-3004.491943359375	414.4635620117188	-480.0979614257812	-2820.890625	721.3944091796875	-503.363037109375	-2772.264404296875	600.2164916992188	-503.5101318359375	-2516.287841796875	125.7105712890625	-208.3505096435547	-2943.749755859375	491.9542541503906	-495.6461181640625	-2846.69140625	627.14208984375	-485.5226745605469	-2507.6875	757.6201782226562	-204.3445129394531	-3004.46875	61.98713684082031	-424.0903625488281	-2577.119873046875	725.6730346679688	-192.2640838623047	-2463.81640625	670.6201782226562	-231.8259887695312	-2535.800537109375	632.9055786132812	-209.9494781494141	-2828.916259765625	545.372802734375	-495.0532836914062	-2494.177978515625	577.1798706054688	-218.7995910644531	-2878.328857421875	442.3139343261719	-496.2229919433594	-2942.692138671875	362.6410217285156	-485.8335266113281	-2499.13623046875	454.2337341308594	-214.8813018798828	-3058.203369140625	96.61685943603516	-484.2670288085938	-2580.8330078125	478.2656860351562	-209.1987457275391	-3137.63037109375	255.4336853027344	-375.2052001953125	-2534.89013671875	357.6630554199219	-225.3055572509766	-2609.24658203125	386.9442138671875	-219.4242706298828	-3080.0927734375	245.3026885986328	-462.4003601074219	-2634.26171875	208.8267059326172	-238.0823516845703	-2443.39892578125	122.0618362426758	-270.0321960449219	-2692.4150390625	189.5118255615234	-291.2781066894531	-2683.910400390625	157.7998809814453	-320.78857421875	-2696.734375	166.9564514160156	-264.19873046875	-3150.766845703125	258.4930419921875	-428.7654113769531
3	0.01	-2522.39990234375	1471.785400390625	-531.3116455078125	-2582.598876953125	1481.8125	-235.2616424560547	-2608.582275390625	1028.014038085938	-507.8585205078125	-2598.993408203125	1039.603759765625	-231.4611358642578	-2574.213623046875	973.8092651367188	-481.0259094238281	-3112.9853515625	284.8165283203125	-406.6757507324219	-2576.4677734375	993.5302124023438	-249.5262298583984	-2739.839111328125	929.9727172851562	-520.2874145507812	-2714.0859375	950.5883178710938	-197.9270782470703	-2739.93212890625	1048.974487304688	-377.6286926269531	-2734.9560546875	698.1500854492188	-527.424072265625	-2993.0068359375	419.3305053710938	-480.1220703125	-2806.318603515625	725.260009765625	-502.1712036132812	-2757.306396484375	604.2011108398438	-503.884765625	-2483.263671875	124.9663925170898	-207.8813934326172	-2931.99951171875	496.9695739746094	-494.7679748535156	-2833.715576171875	631.4254150390625	-484.9950256347656	-2491.89111328125	759.076171875	-203.6771850585938	-3000.9296875	61.99054718017578	-424.4407958984375	-2562.842529296875	727.64892578125	-193.0798187255859	-2448.658935546875	671.4681396484375	-231.4084777832031	-2521.376220703125	634.7229614257812	-210.4743499755859	-2817.14404296875	550.190673828125	-494.9861755371094	-2479.275146484375	578.59814453125	-218.7526245117188	-2866.69384765625	447.00146484375	-496.2628784179688	-2931.1806640625	367.5148315429688	-486.3573303222656	-2479.074462890625	455.1317749023438	-213.3494873046875	-3053.1328125	99.90342712402344	-484.3920288085938	-2562.91064453125	475.5549926757812	-208.2374267578125	-3124.6044921875	263.3497924804688	-376.5488891601562	-2512.31640625	357.1288452148438	-224.7914886474609	-2587.28515625	382.6601867675781	-219.4395599365234	-3068.71240234375	250.8966827392578	-464.13037109375	-2604.40673828125	202.2911834716797	-238.4783172607422	-2408.638427734375	124.901237487793	-269.0540466308594	-2660.814453125	180.6124420166016	-290.6829223632812	-2650.881591796875	149.6344146728516	-320.7912292480469	-2663.997802734375	158.1900939941406	-264.0933227539062	-3138.259765625	266.944580078125	-430.5046081542969
4	0.015	-2506.317626953125	1474.0078125	-530.28466796875	-2567.16357421875	1483.309204101562	-234.5101318359375	-2591.156494140625	1030.098754882812	-507.3075866699219	-2581.88232421875	1041.6416015625	-230.9907531738281	-2557.215087890625	975.564208984375	-480.4528503417969	-3099.158203125	291.9686889648438	-408.230712890625	-2559.244140625	996.1261596679688	-248.7306823730469	-2723.419189453125	932.3988647460938	-520.8453369140625	-2697.073974609375	952.861572265625	-197.7363433837891	-2723.1630859375	1051.145141601562	-378.1839599609375	-2722.148681640625	701.292236328125	-526.5012817382812	-2981.53125	424.3353271484375	-480.3250427246094	-2791.733642578125	728.6372680664062	-501.5658874511719	-2742.678466796875	606.7943115234375	-503.8888244628906	-2449.599609375	123.6543273925781	-206.9526062011719	-2920.40380859375	501.5202331542969	-493.9122314453125	-2819.957763671875	635.4703369140625	-484.4853210449219	-2477.004638671875	760.310546875	-203.3469696044922	-2997.89990234375	60.61620712280273	-424.9635620117188	-2547.748046875	728.7831420898438	-193.14599609375	-2433.690673828125	672.2936401367188	-230.6350555419922	-2506.55615234375	635.8914794921875	-210.8735504150391	-2804.178955078125	553.2847290039062	-494.8042907714844	-2465.906005859375	579.007568359375	-218.9072723388672	-2855.31787109375	451.8468933105469	-496.6069946289062	-2919.658447265625	371.9288024902344	-487.4060363769531	-2461.354736328125	455.19287109375	-212.5856475830078	-3047.886962890625	102.926155090332	-484.3860778808594	-2545.978759765625	472.4795227050781	-208.1123199462891	-3111.419921875	270.9141845703125	-377.23046875	-2489.3271484375	355.2789611816406	-223.8697052001953	-2565.7119140625	378.2109069824219	-219.1059722900391	-3057.328369140625	256.0910949707031	-465.7325439453125	-2574.500244140625	196.2498779296875	-237.8748016357422	-2374.845458984375	128.7843627929688	-267.7578430175781	-2628.81884765625	172.1955871582031	-290.269287109375	-2617.335205078125	142.1957397460938	-320.4882202148438	-2631.7177734375	148.6599731445312	-264.2274475097656	-3124.845458984375	274.9638977050781	-431.532958984375
